#!OML:ASF F:\VICON\USERDATA\INSTALL\rory3\rory3.ASF
:FULLY-SPECIFIED
:DEGREES
2556
root -0.0190209 15.477 -2.06596 16.4183 4.85944 0.908049
lowerback 29.8948 0.476533 -3.58098
upperback 5.42821 -0.552466 -0.732611
thorax -10.3214 -0.1398 1.4466
lowerneck -18.9521 -8.31945 -11.98
upperneck 12.4337 -10.6465 14.1908
head 8.43175 -4.36414 5.30529
rclavicle 1.98785e-016 -3.57812e-015
rhumerus 1.52825 14.2305 -76.7109
rradius 91.229
rwrist 15.3657
rhand 25.0187 8.94075
rfingers 7.12502
rthumb 49.1783 -12.703
lclavicle 1.98785e-016 -3.57812e-015
lhumerus -5.90654 -8.13658 73.918
lradius 99.2169
lwrist 4.02826
lhand 6.03227 27.7702
lfingers 7.12502
lthumb 31.3541 55.1036
rfemur -43.0028 -0.72958 15.648
rtibia 45.8615
rfoot -14.3816 -9.05626
rtoes -10.7982
lfemur -42.469 -3.03495 -15.724
ltibia 40.0102
lfoot -9.41896 3.28693
ltoes -14.0613
2557
root -0.0261399 15.4772 -2.0686 16.4042 4.99209 0.936121
lowerback 29.9862 0.500159 -3.58241
upperback 5.41873 -0.525763 -0.726068
thorax -10.3789 -0.125876 1.44527
lowerneck -18.9015 -8.34018 -11.9264
upperneck 12.4353 -10.6855 14.1423
head 8.42262 -4.38622 5.27429
rclavicle 3.57812e-015 -1.51076e-014
rhumerus 1.48043 14.1426 -76.6593
rradius 91.2058
rwrist 15.7443
rhand 25.1139 9.03272
rfingers 7.12502
rthumb 49.2657 -12.5672
lclavicle 3.57812e-015 -1.51076e-014
lhumerus -5.90972 -8.28682 74.0035
lradius 99.1225
lwrist 3.9779
lhand 5.95083 27.6906
lfingers 7.12502
lthumb 31.2765 55.039
rfemur -43.0024 -0.760442 15.6416
rtibia 45.9168
rfoot -14.4253 -9.0989
rtoes -10.5579
lfemur -42.4836 -3.03311 -15.7414
ltibia 39.9937
lfoot -9.3983 3.22578
ltoes -14.5558
2558
root -0.0313702 15.4769 -2.0697 16.4129 5.09249 1.04168
lowerback 30.0152 0.556086 -3.59391
upperback 5.42228 -0.46702 -0.792986
thorax -10.3926 -0.0990394 1.35373
lowerneck -18.7866 -8.37001 -11.7324
upperneck 12.3524 -10.773 14.0992
head 8.37368 -4.42824 5.21472
rclavicle -9.93923e-015 -2.18663e-015
rhumerus 1.33709 13.9992 -76.6408
rradius 91.3042
rwrist 15.6958
rhand 24.8777 8.75429
rfingers 7.12502
rthumb 49.0489 -12.9539
lclavicle -9.93923e-015 -2.18663e-015
lhumerus -5.7943 -8.53942 73.978
lradius 99.0011
lwrist 3.96466
lhand 6.03344 27.7641
lfingers 7.12502
lthumb 31.3552 55.0972
rfemur -43.0288 -0.818041 15.5477
rtibia 45.991
rfoot -14.4936 -9.10456
rtoes -10.1695
lfemur -42.5026 -3.05289 -15.8456
ltibia 39.9915
lfoot -9.34473 3.09209
ltoes -14.3384
2559
root -0.0376068 15.4745 -2.0707 16.4058 5.16336 1.07252
lowerback 30.0624 0.576477 -3.61076
upperback 5.42617 -0.448103 -0.794639
thorax -10.4122 -0.0893067 1.35459
lowerneck -18.7494 -8.37691 -11.7163
upperneck 12.3194 -10.7866 14.0982
head 8.3572 -4.43617 5.20994
rclavicle 1.45113e-014 -1.63003e-014
rhumerus 1.46054 14.2845 -76.4343
rradius 91.0731
rwrist 15.3046
rhand 24.0875 8.33001
rfingers 7.12502
rthumb 48.3221 -13.7311
lclavicle 1.45113e-014 -1.63003e-014
lhumerus -5.84558 -8.55693 73.9873
lradius 98.9715
lwrist 3.9061
lhand 6.17469 27.7352
lfingers 7.12502
lthumb 31.4898 55.0422
rfemur -43.0624 -0.819903 15.5385
rtibia 46.0665
rfoot -14.5438 -9.16517
rtoes -10.2756
lfemur -42.5186 -3.03964 -15.8605
ltibia 39.9976
lfoot -9.29555 2.95271
ltoes -14.1511
2560
root -0.042696 15.471 -2.07089 16.4042 5.2098 1.10664
lowerback 30.0902 0.553773 -3.69093
upperback 5.42894 -0.495437 -0.738151
thorax -10.4188 -0.107256 1.48321
lowerneck -18.7814 -8.35519 -11.921
upperneck 12.3299 -10.7106 14.1555
head 8.37088 -4.40361 5.27509
rclavicle -3.18055e-015 8.15017e-015
rhumerus 1.72128 14.7364 -76.1401
rradius 90.8208
rwrist 15.1216
rhand 23.5374 8.18427
rfingers 7.12502
rthumb 47.815 -14.1144
lclavicle -3.18055e-015 8.15017e-015
lhumerus -6.00203 -8.30238 74.0719
lradius 98.967
lwrist 3.82764
lhand 6.29214 27.7201
lfingers 7.12502
lthumb 31.6017 55.0051
rfemur -43.0976 -0.797628 15.5136
rtibia 46.1401
rfoot -14.5457 -9.26186
rtoes -10.3737
lfemur -42.5409 -3.03401 -15.8836
ltibia 40.0154
lfoot -9.39268 2.91754
ltoes -14.5484
2561
root -0.0457512 15.4684 -2.06996 16.3946 5.27256 1.06195
lowerback 30.0886 0.51878 -3.63778
upperback 5.43409 -0.519258 -0.708178
thorax -10.4112 -0.119531 1.49556
lowerneck -18.8033 -8.34502 -11.9992
upperneck 12.3548 -10.6824 14.1881
head 8.38558 -4.38975 5.3037
rclavicle -3.57812e-015 -3.97569e-016
rhumerus 1.80383 14.8691 -76.1408
rradius 90.7692
rwrist 15.0645
rhand 23.3629 8.13631
rfingers 7.12502
rthumb 47.654 -14.2363
lclavicle -3.57812e-015 -3.97569e-016
lhumerus -6.06533 -8.09366 74.0402
lradius 98.8904
lwrist 3.75361
lhand 6.35905 27.6951
lfingers 7.12502
lthumb 31.6654 54.9676
rfemur -43.1057 -0.773445 15.574
rtibia 46.1855
rfoot -14.5393 -9.37768
rtoes -10.6896
lfemur -42.5784 -3.01714 -15.8224
ltibia 40.0563
lfoot -9.48428 2.86467
ltoes -14.8437
2562
root -0.0482045 15.4663 -2.06835 16.3824 5.36189 1.04543
lowerback 30.0765 0.530323 -3.54694
upperback 5.45136 -0.477112 -0.724123
thorax -10.3887 -0.103787 1.40887
lowerneck -18.7503 -8.37128 -11.9073
upperneck 12.3002 -10.7417 14.1828
head 8.36119 -4.41699 5.27767
rclavicle 4.37326e-015 2.5842e-015
rhumerus 1.79247 14.7561 -76.202
rradius 90.7703
rwrist 14.9542
rhand 23.2838 8.15626
rfingers 7.12502
rthumb 47.581 -14.2497
lclavicle 4.37326e-015 2.5842e-015
lhumerus -6.01847 -8.12525 73.9592
lradius 98.8398
lwrist 3.76558
lhand 6.4121 27.6559
lfingers 7.12502
lthumb 31.7159 54.9184
rfemur -43.0907 -0.790326 15.6083
rtibia 46.2241
rfoot -14.5804 -9.42516
rtoes -10.4665
lfemur -42.6117 -2.99622 -15.8059
ltibia 40.1067
lfoot -9.33076 2.70184
ltoes -14.3907
2563
root -0.051043 15.4643 -2.06744 16.3355 5.49013 1.01459
lowerback 30.1043 0.539264 -3.44583
upperback 5.49792 -0.43161 -0.706706
thorax -10.3519 -0.0866496 1.35309
lowerneck -18.7941 -8.42107 -11.821
upperneck 12.299 -10.8186 14.1293
head 8.37055 -4.45203 5.23158
rclavicle -1.98785e-016 -1.98785e-016
rhumerus 1.93319 14.667 -76.1136
rradius 90.6959
rwrist 14.9293
rhand 23.2738 8.16857
rfingers 7.12502
rthumb 47.5717 -14.2416
lclavicle -1.98785e-016 -1.98785e-016
lhumerus -5.95507 -8.17703 73.9042
lradius 98.8548
lwrist 3.86784
lhand 6.48188 27.6058
lfingers 7.12502
lthumb 31.7824 54.8551
rfemur -43.0283 -0.852782 15.6709
rtibia 46.2661
rfoot -14.6509 -9.46056
rtoes -10.2138
lfemur -42.6103 -2.99314 -15.7743
ltibia 40.1671
lfoot -9.23581 2.56996
ltoes -14.0622
2564
root -0.0562329 15.4609 -2.06839 16.2823 5.60708 1.0078
lowerback 30.1541 0.525333 -3.39984
upperback 5.53119 -0.432891 -0.68543
thorax -10.3383 -0.0885845 1.35131
lowerneck -18.8163 -8.44783 -11.8339
upperneck 12.3059 -10.8517 14.1352
head 8.38246 -4.46668 5.23001
rclavicle -3.77691e-015 -5.96354e-015
rhumerus 2.05393 14.6781 -76.1037
rradius 90.6541
rwrist 14.9698
rhand 23.1891 8.06247
rfingers 7.12502
rthumb 47.4936 -14.3832
lclavicle -3.77691e-015 -5.96354e-015
lhumerus -5.97096 -8.15007 73.8888
lradius 98.8525
lwrist 3.98338
lhand 6.16802 27.6652
lfingers 7.12502
lthumb 31.4834 54.9734
rfemur -42.9813 -0.876716 15.7063
rtibia 46.3286
rfoot -14.6855 -9.52932
rtoes -9.99125
lfemur -42.6077 -2.98084 -15.7634
ltibia 40.2231
lfoot -9.32199 2.50659
ltoes -14.5375
2565
root -0.0633222 15.4563 -2.06947 16.24 5.6717 1.02181
lowerback 30.2031 0.571844 -3.36146
upperback 5.54618 -0.367485 -0.719141
thorax -10.349 -0.0600543 1.26615
lowerneck -18.7411 -8.51676 -11.821
upperneck 12.2618 -10.9763 14.2544
head 8.38024 -4.5182 5.25036
rclavicle -1.33186e-014 -3.97569e-015
rhumerus 2.07229 14.5093 -76.1492
rradius 90.6495
rwrist 15.1533
rhand 23.1531 8.03161
rfingers 7.12502
rthumb 47.4603 -14.4291
lclavicle -1.33186e-014 -3.97569e-015
lhumerus -5.96416 -8.35798 73.8147
lradius 98.866
lwrist 4.24999
lhand 5.57242 28.0418
lfingers 7.12502
lthumb 30.9158 55.4593
rfemur -42.9784 -0.835717 15.715
rtibia 46.4143
rfoot -14.6425 -9.71561
rtoes -10.5888
lfemur -42.6273 -2.93089 -15.768
ltibia 40.2911
lfoot -9.33003 2.40935
ltoes -14.6183
2566
root -0.0693967 15.4535 -2.0688 16.2118 5.72479 1.06184
lowerback 30.2222 0.627205 -3.36068
upperback 5.56477 -0.300313 -0.746345
thorax -10.3401 -0.029791 1.20935
lowerneck -18.6843 -8.56541 -11.7461
upperneck 12.2321 -11.0724 14.2877
head 8.37225 -4.55987 5.23504
rclavicle -1.61016e-014 -5.56597e-015
rhumerus 2.11383 14.3723 -76.0825
rradius 90.6036
rwrist 15.3505
rhand 23.3413 8.142
rfingers 7.12502
rthumb 47.6341 -14.2398
lclavicle -1.61016e-014 -5.56597e-015
lhumerus -5.91041 -8.5306 73.7414
lradius 98.843
lwrist 4.46491
lhand 5.12241 28.4015
lfingers 7.12502
lthumb 30.4867 55.8995
rfemur -42.9763 -0.799842 15.6895
rtibia 46.5163
rfoot -14.6606 -9.84811
rtoes -11.0736
lfemur -42.6388 -2.87244 -15.814
ltibia 40.355
lfoot -9.28691 2.24634
ltoes -14.0924
2567
root -0.0740987 15.4492 -2.06967 16.2083 5.80755 1.02767
lowerback 30.1804 0.620458 -3.32047
upperback 5.59851 -0.288362 -0.705867
thorax -10.2811 -0.0260409 1.22758
lowerneck -18.6871 -8.55356 -11.7177
upperneck 12.2077 -11.0526 14.2477
head 8.3573 -4.55313 5.21937
rclavicle 9.14409e-015 -8.94531e-015
rhumerus 2.33733 14.3818 -75.8723
rradius 90.5015
rwrist 15.5397
rhand 23.7846 8.51873
rfingers 7.12502
rthumb 48.043 -13.674
lclavicle 9.14409e-015 -8.94531e-015
lhumerus -5.85766 -8.42976 73.7036
lradius 98.7994
lwrist 4.45982
lhand 4.95809 28.4263
lfingers 7.12502
lthumb 30.33 55.9534
rfemur -43.0105 -0.767553 15.7417
rtibia 46.6192
rfoot -14.7566 -9.91564
rtoes -10.9386
lfemur -42.6969 -2.79146 -15.792
ltibia 40.422
lfoot -9.25437 2.09625
ltoes -14.0223
2568
root -0.0775175 15.4448 -2.07053 16.1806 5.90526 1.02418
lowerback 30.1718 0.596831 -3.27399
upperback 5.63253 -0.299568 -0.685694
thorax -10.2374 -0.0330645 1.22784
lowerneck -18.652 -8.52467 -11.681
upperneck 12.1167 -11.0116 14.2271
head 8.31168 -4.53733 5.2126
rclavicle -2.50469e-014 -1.41137e-014
rhumerus 2.50489 14.3845 -75.7964
rradius 90.4685
rwrist 15.5674
rhand 23.9787 8.69878
rfingers 7.12502
rthumb 48.2219 -13.4098
lclavicle -2.50469e-014 -1.41137e-014
lhumerus -5.83592 -8.33278 73.6296
lradius 98.78
lwrist 4.41069
lhand 4.81663 28.2183
lfingers 7.12502
lthumb 30.1951 55.77
rfemur -43.0327 -0.812365 15.7745
rtibia 46.7383
rfoot -14.8371 -9.92534
rtoes -10.818
lfemur -42.7203 -2.79394 -15.7852
ltibia 40.4703
lfoot -9.25061 2.01912
ltoes -14.1249
2569
root -0.0800436 15.4435 -2.07027 16.1706 5.95253 1.07866
lowerback 30.1549 0.601179 -3.27288
upperback 5.65917 -0.293439 -0.699173
thorax -10.1988 -0.0311203 1.20953
lowerneck -18.5865 -8.54269 -11.7058
upperneck 12.0021 -11.0382 14.3037
head 8.27307 -4.5496 5.23908
rclavicle 1.07344e-014 7.35503e-015
rhumerus 2.56338 14.4337 -75.8457
rradius 90.5528
rwrist 15.3868
rhand 23.8056 8.38212
rfingers 7.12502
rthumb 48.0623 -13.8016
lclavicle 1.07344e-014 7.35503e-015
lhumerus -5.83502 -8.25565 73.5567
lradius 98.779
lwrist 4.41039
lhand 4.78818 28.2894
lfingers 7.12502
lthumb 30.1679 55.8461
rfemur -43.0707 -0.895089 15.7528
rtibia 46.8535
rfoot -14.8723 -9.93596
rtoes -11.1275
lfemur -42.7482 -2.80647 -15.841
ltibia 40.5242
lfoot -9.27705 2.01026
ltoes -14.2675
